# xmcd
#
# Track frame offsets:
#	150
#	17450
#	34662
#	49767
#	68248
#	83837
#	100112
#	115466
#	132129
#	149503
#	165868
#	185966
#	200831
#	217647
#
# Disc length: 3094 seconds
#
# Revision: 2
# Processed by: cddbd v1.5.2PL0 Copyright (c) Steve Scherf et al.
# Submitted via: audiograbber 1.83.01
#
DISCID=c00c140e
DTITLE=KEN SNEDDON - BACK IN   49
DYEAR=1900
DGENRE=Country
TTITLE0=Ken Sneddon -BACK  49 - 01 - EMU PARK SONG
TTITLE1=Ken Sneddon -BACK  49 - 02 - SHINY RED TAIL LIGHTS
TTITLE2=Ken Sneddon -BACK  49 - 03 - JUST AN OLD BUSHIE AT HEART
TTITLE3=Ken Sneddon -BACK  49 - 04 - 15 ODD RINGERS
TTITLE4=Ken Sneddon -BACK  49 - 05 - COUNTRY BOYS
TTITLE5=Ken Sneddon -BACK  49 - 06 - IF I'D STAYED AROUND
TTITLE6=Ken Sneddon -BACK  49 - 07 - NO LIMOUSINES
TTITLE7=Ken Sneddon -BACK  49 - 08 - ANYMORE THEN THAT
TTITLE8=Ken Sneddon -BACK  49 - 09 - WHAT DO YOU SAY
TTITLE9=Ken Sneddon -BACK  49 - 10 - TO ALL THE LADIES THAT I'VE LOVED
TTITLE10=Ken Sneddon -BACK  49 - 11 - SO LONG SEE AROUND
TTITLE11=Ken Sneddon -BACK  49 - 12 - WALTZING MATILDA
TTITLE12=Ken Sneddon -BACK  49 - 13 - STICKIT UP THERE WITH YOUR OUTBACK
TTITLE13=Ken Sneddon -BACK  49 - 14 - FREEWAY (INSTRUMENTAL)
EXTD=
EXTT0=
EXTT1=
EXTT2=
EXTT3=
EXTT4=
EXTT5=
EXTT6=
EXTT7=
EXTT8=
EXTT9=
EXTT10=
EXTT11=
EXTT12=
EXTT13=
PLAYORDER=
